HIERARCHY
ROOT Hips
{
    OFFSET 0.000000 0.000000 0.000000
    CHANNELS 6 Xposition Yposition Zposition Zrotation Xrotation Yrotation
    JOINT Chest
    {
        OFFSET -0.000000 0.078598 0.000000
        CHANNELS 3 Zrotation Xrotation Yrotation
        JOINT Chest2
        {
            OFFSET -0.000000 0.230468 0.000000
            CHANNELS 3 Zrotation Xrotation Yrotation
            JOINT Neck
            {
                OFFSET -0.000000 0.249638 0.000000
                CHANNELS 3 Zrotation Xrotation Yrotation
                JOINT Head
                {
                    OFFSET -0.000000 0.103998 0.019170
                    CHANNELS 3 Zrotation Xrotation Yrotation
                    End Site
                    {
                        OFFSET -0.000000 0.191701 0.000000
                    }
                }
            }
            JOINT LeftCollar
            {
                OFFSET 0.038274 0.205938 -0.001496
                CHANNELS 3 Zrotation Xrotation Yrotation
                JOINT LeftShoulder
                {
                    OFFSET 0.132388 0.000000 0.000000
                    CHANNELS 3 Zrotation Xrotation Yrotation
                    JOINT LeftElbow
                    {
                        OFFSET 0.250301 0.000000 0.000000
                        CHANNELS 3 Zrotation Xrotation Yrotation
                        JOINT LeftWrist
                        {
                            OFFSET 0.285291 0.000000 0.000000
                            CHANNELS 3 Zrotation Xrotation Yrotation
                            End Site
                            {
                                OFFSET 0.000000 -0.143776 0.000000
                            }
                        }
                    }
                }
            }
            JOINT RightCollar
            {
                OFFSET -0.038406 0.205938 -0.001496
                CHANNELS 3 Zrotation Xrotation Yrotation
                JOINT RightShoulder
                {
                    OFFSET -0.132388 0.000000 0.000000
                    CHANNELS 3 Zrotation Xrotation Yrotation
                    JOINT RightElbow
                    {
                        OFFSET -0.250301 0.000000 0.000000
                        CHANNELS 3 Zrotation Xrotation Yrotation
                        JOINT RightWrist
                        {
                            OFFSET -0.285291 0.000000 0.000000
                            CHANNELS 3 Zrotation Xrotation Yrotation
                            End Site
                            {
                                OFFSET -0.000000 -0.143776 0.000000
                            }
                        }
                    }
                }
            }
        }
    }
    JOINT LeftHip
    {
        OFFSET 0.095851 0.000000 0.000000
        CHANNELS 3 Zrotation Xrotation Yrotation
        JOINT LeftKnee
        {
            OFFSET -0.000000 -0.406444 0.000000
            CHANNELS 3 Zrotation Xrotation Yrotation
            JOINT LeftAnkle
            {
                OFFSET -0.000000 -0.408443 0.000000
                CHANNELS 3 Zrotation Xrotation Yrotation
                JOINT LeftToe
                {
                    OFFSET -0.000000 -0.062303 0.143776
                    CHANNELS 3 Zrotation Xrotation Yrotation
                    End Site
                    {
                        OFFSET -0.000000 0.000000 0.038340
                    }
                }
            }
        }
    }
    JOINT RightHip
    {
        OFFSET -0.095851 0.000000 0.000000
        CHANNELS 3 Zrotation Xrotation Yrotation
        JOINT RightKnee
        {
            OFFSET -0.000000 -0.406444 0.000000
            CHANNELS 3 Zrotation Xrotation Yrotation
            JOINT RightAnkle
            {
                OFFSET -0.000000 -0.408443 0.000000
                CHANNELS 3 Zrotation Xrotation Yrotation
                JOINT RightToe
                {
                    OFFSET -0.000000 -0.062303 0.143776
                    CHANNELS 3 Zrotation Xrotation Yrotation
                    End Site
                    {
                        OFFSET -0.000000 0.000000 0.038340
                    }
                }
            }
        }
    }
}
MOTION
Frames:    13
Frame Time:    0.016667
0.262695    0.804558    -0.348984    22.412941    -7.179222    -108.081932    1.616131    25.889071    -1.395486    -4.689920    2.918525    -0.223328    -3.879447    17.879080    -19.786861    -0.854197    -13.783095    -21.567402    3.816103    -2.376400    -26.458319    -27.650793    54.787537    -42.029736    16.628008    -5.519410    -36.510693    105.242607    -7.066079    0.934399    -3.333339    -15.766642    34.567730    32.057701    49.974880    51.435970    9.027511    -14.813219    97.576241    -67.759155    -4.493867    -23.667002    30.972975    -20.161942    10.249619    0.318642    2.320215    15.944766    -29.482004    4.814865    15.604594    0.000000    0.000000    0.000000    -16.392378    -51.177132    -12.364521    29.975845    40.367226    -17.584137    -8.992235    -20.841202    -9.712252    0.000000    0.000000    0.000000    
0.264518    0.805138    -0.349073    23.089325    -7.195604    -108.090622    1.166826    25.816267    -0.863841    -4.326730    4.043974    -0.050149    -3.360980    16.821331    -20.425922    -0.789533    -13.943540    -22.047010    4.129884    -3.006945    -27.206322    -27.771944    54.205379    -42.234234    16.589254    -5.558455    -36.504742    105.666222    -7.580094    1.097566    -3.949486    -16.656515    33.644463    32.550323    50.395714    50.996815    8.258149    -15.420041    97.955879    -66.093422    -5.077153    -23.295265    31.308775    -20.530569    10.574898    0.074574    1.587481    15.941141    -28.796162    5.066421    16.677107    0.000000    0.000000    0.000000    -16.498610    -51.576031    -13.071321    29.991970    39.866741    -17.924618    -8.958031    -20.494827    -9.031913    0.000000    0.000000    0.000000    
0.266277    0.805632    -0.349025    23.700100    -7.213025    -108.088600    1.022055    26.243462    -0.801907    -4.248377    3.889850    -0.049020    -2.814810    16.914467    -20.767223    -1.429177    -14.314734    -22.255049    4.032248    -3.101629    -27.624447    -28.148907    54.062019    -41.603973    16.718691    -5.605056    -36.789188    105.922852    -7.428441    1.048584    -3.896041    -16.406162    33.534008    32.181313    50.639107    51.226753    8.484023    -15.513762    98.047829    -68.103043    -4.102667    -23.918993    31.648699    -21.053038    10.738285    0.098376    1.467313    16.137468    -28.790743    5.330744    16.910297    0.000000    0.000000    0.000000    -16.685022    -52.016846    -13.740893    30.108368    39.536674    -17.905161    -9.030763    -20.001148    -8.746058    0.000000    0.000000    0.000000    
0.267146    0.805980    -0.348213    24.108009    -7.224607    -107.903015    1.229813    26.837395    -1.094433    -4.386029    3.797444    -0.126549    -3.098838    16.824867    -20.798029    -0.948362    -14.506297    -22.363329    4.012152    -2.933336    -27.654659    -27.604488    53.987030    -42.038162    16.839130    -5.937280    -36.769760    106.131386    -7.696801    1.398501    -3.897542    -16.391251    33.406219    32.555077    50.297588    50.816273    9.049263    -14.694371    98.096611    -68.898994    -4.079204    -23.789295    31.731525    -21.497499    10.485029    0.199414    1.313362    16.427242    -29.120245    5.357586    17.138208    0.000000    0.000000    0.000000    -17.445910    -52.060131    -14.766840    30.701664    39.108952    -18.243090    -9.186013    -19.710423    -8.312292    0.000000    0.000000    0.000000    
0.269149    0.806214    -0.349223    24.692163    -7.182559    -107.938042    0.984439    27.148746    -0.974688    -4.205538    3.855909    -0.110158    -2.589377    16.909355    -21.055187    -1.578633    -15.311227    -22.504780    3.969084    -2.825542    -27.868658    -27.138741    53.949471    -42.194813    16.989599    -6.192940    -36.751865    106.317230    -7.420777    1.580246    -3.742244    -16.202766    33.447628    32.002636    50.492149    51.130054    8.759139    -15.234152    98.042473    -68.652306    -4.221885    -23.944122    32.168198    -22.030455    11.078032    0.691342    1.541217    16.647583    -30.177155    6.039622    16.487125    0.000000    0.000000    0.000000    -17.224768    -52.556282    -15.107551    30.832930    38.823780    -18.265295    -10.294699    -18.859188    -8.508746    0.000000    0.000000    0.000000    
0.270558    0.806397    -0.349489    25.176767    -7.243474    -107.855080    0.821802    27.505526    -0.965500    -4.111627    3.879927    -0.121920    -2.589934    16.840025    -21.175020    -1.464260    -15.602592    -22.629545    3.942218    -2.725038    -27.857050    -26.694128    53.809746    -42.550819    17.257622    -6.211321    -36.761791    106.069092    -7.406414    1.487283    -3.792617    -16.077749    33.368084    31.950291    50.437679    51.194218    8.595836    -15.430496    98.043900    -68.878937    -4.782751    -23.860119    32.436241    -22.127394    11.282669    0.525634    0.602933    16.532772    -30.296511    6.537902    17.333996    0.000000    0.000000    0.000000    -17.350906    -52.879799    -15.806332    30.827703    38.550522    -18.378525    -10.433234    -18.809313    -8.457298    0.000000    0.000000    0.000000    
0.271985    0.806590    -0.350089    25.669590    -7.263220    -107.834236    0.709154    27.810524    -0.960136    -4.153546    3.921812    -0.126232    -2.502690    16.777191    -21.272518    -1.339869    -15.920965    -22.706249    4.058356    -2.529311    -28.150616    -26.943796    53.763588    -42.086784    17.885275    -6.531347    -36.828369    106.462990    -7.881584    1.678458    -3.558709    -15.976161    33.400539    31.878969    50.342304    51.217892    8.491863    -15.369696    97.871498    -69.292313    -4.415632    -23.750408    32.859386    -22.401161    11.730913    0.451914    0.311889    16.350164    -30.670935    6.932121    17.508392    0.000000    0.000000    0.000000    -17.208160    -53.228855    -16.146019    30.806686    38.232750    -18.604210    -10.618832    -18.726763    -8.417702    0.000000    0.000000    0.000000    
0.273110    0.806938    -0.350558    26.167303    -7.308971    -107.820198    0.535861    28.109947    -0.930730    -4.037983    3.928658    -0.133759    -2.770471    16.234009    -21.097450    -1.260696    -15.467252    -22.580217    3.978644    -2.649046    -27.978991    -26.755426    53.942341    -42.104649    17.507982    -10.419823    -39.302895    101.592659    -0.797945    4.247525    -3.640813    -16.006029    33.349480    31.997194    50.426220    51.359699    8.124275    -15.718157    97.816513    -68.924530    -4.748293    -23.606026    33.084499    -22.700693    11.796607    0.491785    0.034368    16.874170    -30.608919    7.308498    17.579018    0.000000    0.000000    0.000000    -17.033522    -53.539997    -16.520506    30.491709    37.953751    -18.664772    -10.742647    -18.639200    -7.991017    0.000000    0.000000    0.000000    
0.273985    0.807349    -0.350732    26.655128    -7.360833    -107.737183    0.517074    28.445959    -0.924128    -4.079439    3.675270    -0.140477    -2.711792    16.633791    -21.207712    -1.119879    -16.274368    -22.693880    4.030332    -2.783209    -28.155607    -26.760469    54.102982    -42.244514    17.791052    -6.903379    -36.962257    106.885040    -7.704334    2.065320    -3.632355    -15.875164    33.439903    32.553852    50.012779    50.727470    8.501485    -15.080669    97.981728    -69.410927    -4.148645    -23.558575    33.203182    -23.074463    11.907166    0.636234    -0.191488    16.743275    -30.526215    7.480965    18.045612    0.000000    0.000000    0.000000    -17.174879    -53.863472    -17.030914    30.414005    37.746181    -18.730730    -10.694196    -18.477594    -7.597730    0.000000    0.000000    0.000000    
0.274990    0.807762    -0.350711    27.109491    -7.363544    -107.684158    0.429850    28.759802    -0.813947    -3.888688    3.598890    -0.119189    -2.813595    16.388077    -21.166325    -1.299276    -16.348093    -22.678726    3.809433    -2.640709    -28.263203    -26.305027    54.024448    -42.467022    17.829716    -7.037169    -37.109207    107.145721    -7.955463    2.217055    -3.668180    -15.660295    33.243362    31.952789    50.085693    51.184364    8.273041    -15.347293    97.851295    -68.449570    -4.799035    -23.387894    33.485294    -23.493244    11.963775    0.595583    -0.215330    16.520296    -30.363750    7.488536    18.466866    0.000000    0.000000    0.000000    -17.359629    -54.201263    -17.232590    30.692211    37.425446    -19.217661    -10.630560    -18.112623    -7.208898    0.000000    0.000000    0.000000    
0.275871    0.808016    -0.350599    27.526814    -7.382365    -107.573265    0.491015    29.054897    -0.850059    -3.919481    3.533608    -0.126350    -3.204309    16.354065    -20.982815    -0.750392    -16.616199    -22.585043    3.778223    -2.640471    -28.286520    -26.387920    53.983089    -42.173820    16.545536    -9.844998    -38.678673    105.607880    -6.365793    1.631002    -3.638178    -15.756454    33.252911    32.121941    50.188450    50.738441    7.988903    -15.602733    97.668739    -66.915108    -5.770640    -23.036079    33.680752    -23.968376    12.109578    0.626082    -0.165265    16.409517    -30.329262    7.472304    18.608679    0.000000    0.000000    0.000000    -17.689863    -54.542931    -17.627569    31.038452    37.196423    -19.352930    -10.604148    -17.746744    -7.486284    0.000000    0.000000    0.000000    
0.276610    0.808160    -0.350817    27.851954    -7.386940    -107.483368    0.536846    29.377073    -0.855069    -4.046321    3.466826    -0.121853    -3.132955    16.213753    -20.937769    -0.790014    -16.824484    -22.517681    3.928324    -2.635396    -28.326370    -26.096786    54.140186    -42.559849    18.443104    -7.124558    -37.564201    106.157616    -7.499569    1.875685    -3.450744    -15.656433    33.300735    31.477865    50.188046    51.655632    9.642069    -14.471313    97.945839    -74.148506    -2.309924    -24.621330    33.839920    -24.226221    12.011010    0.690381    -0.343358    16.788792    -30.387730    7.791645    18.553432    0.000000    0.000000    0.000000    -17.748171    -54.828972    -18.037445    31.012135    37.168488    -19.437565    -10.806970    -17.472826    -7.434016    0.000000    0.000000    0.000000    
0.280810    0.809706    -0.347111    28.883526    -7.398454    -105.282829    2.442941    29.490931    -2.942505    -4.403831    2.929888    -0.657673    -3.356405    15.951739    -20.874315    -0.673906    -16.772268    -22.502365    3.851786    -2.670926    -28.401875    -26.114058    54.040520    -42.550659    17.456858    -7.580480    -37.902905    108.950653    -8.023896    2.897090    -3.653585    -15.671859    33.197197    31.401487    50.750763    51.534966    7.256337    -16.748009    97.751640    -66.794861    -5.457106    -23.420639    33.380322    -27.275652    9.967154    1.090715    0.462417    16.902531    -30.621466    8.219091    19.514093    0.000000    0.000000    0.000000    -21.140999    -55.107475    -22.682091    31.016201    37.166573    -19.907450    -10.336492    -17.218929    -6.903924    0.000000    0.000000    0.000000    
